<svg width="24" height="24" viewBox="0 0 24 24" fill="none" xmlns="http://www.w3.org/2000/svg">
<path fill-rule="evenodd" clip-rule="evenodd" d="M12 14C13.1046 14 14 13.1046 14 12C14 10.8954 13.1046 10 12 10C10.8954 10 10 10.8954 10 12C10 13.1046 10.8954 14 12 14Z" stroke="currentColor" stroke-width="2" stroke-linecap="round" stroke-linejoin="round"/>
<path d="M16.9468 7.05255C16.556 6.66225 15.9229 6.6626 15.5326 7.05334C15.1423 7.44408 15.1426 8.07725 15.5333 8.46755L16.9468 7.05255ZM15.5333 15.5426C15.1426 15.9329 15.1423 16.566 15.5326 16.9568C15.9229 17.3475 16.556 17.3479 16.9468 16.9576L15.5333 15.5426ZM7.05335 16.9476C7.44409 17.3379 8.07725 17.3375 8.46756 16.9468C8.85787 16.556 8.85752 15.9229 8.46678 15.5326L7.05335 16.9476ZM8.46678 8.45755C8.85752 8.06725 8.85787 7.43408 8.46756 7.04334C8.07725 6.6526 7.44409 6.65225 7.05335 7.04255L8.46678 8.45755ZM19.7773 4.22305C19.3868 3.83247 18.7536 3.83237 18.3631 4.22284C17.9725 4.61331 17.9724 5.24647 18.3628 5.63705L19.7773 4.22305ZM18.3628 18.3631C17.9724 18.7536 17.9725 19.3868 18.3631 19.7773C18.7536 20.1677 19.3868 20.1676 19.7773 19.7771L18.3628 18.3631ZM4.22285 19.7771C4.61331 20.1676 5.24648 20.1677 5.63706 19.7773C6.02765 19.3868 6.02774 18.7536 5.63728 18.3631L4.22285 19.7771ZM5.63728 5.63705C6.02774 5.24647 6.02765 4.61331 5.63706 4.22284C5.24648 3.83237 4.61331 3.83247 4.22285 4.22305L5.63728 5.63705ZM15.5333 8.46755C16.4722 9.4054 16.9998 10.678 16.9998 12.0051H18.9998C18.9998 10.1472 18.2612 8.36553 16.9468 7.05255L15.5333 8.46755ZM16.9998 12.0051C16.9998 13.3321 16.4722 14.6047 15.5333 15.5426L16.9468 16.9576C18.2612 15.6446 18.9998 13.8629 18.9998 12.0051H16.9998ZM8.46678 15.5326C7.52789 14.5947 7.00034 13.3221 7.00034 11.9951H5.00034C5.00034 13.8529 5.73891 15.6346 7.05335 16.9476L8.46678 15.5326ZM7.00034 11.9951C7.00034 10.668 7.52789 9.39539 8.46678 8.45755L7.05335 7.04255C5.73891 8.35553 5.00034 10.1372 5.00034 11.9951H7.00034ZM18.3628 5.63705C21.8763 9.15155 21.8763 14.8486 18.3628 18.3631L19.7773 19.7771C24.0715 15.4816 24.0715 8.51855 19.7773 4.22305L18.3628 5.63705ZM5.63728 18.3631C2.12384 14.8486 2.12384 9.15155 5.63728 5.63705L4.22285 4.22305C-0.071353 8.51855 -0.071353 15.4816 4.22285 19.7771L5.63728 18.3631Z" fill="currentColor"/>
</svg>
