<svg height="116" version="1.1" width="25" xmlns="http://www.w3.org/2000/svg" >
  <desc >Created with Raphaël 2.1.2</desc>
  <defs ></defs>
  <path fill="#ffffff" stroke="none" d="M7,102.5L13,105.5L19,102.5L12.5,116" ></path>
  <rect x="11" y="0" width="3" height="3" r="1.5" rx="1.5" ry="1.5" fill="#ffffff" stroke="none" ></rect>
  <rect x="11" y="6" width="3" height="3" r="1.5" rx="1.5" ry="1.5" fill="#ffffff" stroke="none" ></rect>
  <rect x="11" y="12" width="3" height="3" r="1.5" rx="1.5" ry="1.5" fill="#ffffff" stroke="none" ></rect>
  <rect x="11" y="18" width="3" height="3" r="1.5" rx="1.5" ry="1.5" fill="#ffffff" stroke="none" ></rect>
  <rect x="11" y="24" width="3" height="3" r="1.5" rx="1.5" ry="1.5" fill="#ffffff" stroke="none" ></rect>
  <rect x="11" y="30" width="3" height="3" r="1.5" rx="1.5" ry="1.5" fill="#ffffff" stroke="none" ></rect>
  <rect x="11" y="36" width="3" height="3" r="1.5" rx="1.5" ry="1.5" fill="#ffffff" stroke="none" ></rect>
  <rect x="11" y="42" width="3" height="3" r="1.5" rx="1.5" ry="1.5" fill="#ffffff" stroke="none" ></rect>
  <rect x="11" y="48" width="3" height="3" r="1.5" rx="1.5" ry="1.5" fill="#ffffff" stroke="none" ></rect>
  <rect x="11" y="54" width="3" height="3" r="1.5" rx="1.5" ry="1.5" fill="#ffffff" stroke="none" ></rect>
  <rect x="11" y="60" width="3" height="3" r="1.5" rx="1.5" ry="1.5" fill="#ffffff" stroke="none" ></rect>
  <rect x="11" y="66" width="3" height="3" r="1.5" rx="1.5" ry="1.5" fill="#ffffff" stroke="none" ></rect>
  <rect x="11" y="72" width="3" height="3" r="1.5" rx="1.5" ry="1.5" fill="#ffffff" stroke="none" ></rect>
  <rect x="11" y="78" width="3" height="3" r="1.5" rx="1.5" ry="1.5" fill="#ffffff" stroke="none" ></rect>
  <rect x="11" y="84" width="3" height="3" r="1.5" rx="1.5" ry="1.5" fill="#ffffff" stroke="none" ></rect>
  <rect x="11" y="90" width="3" height="3" r="1.5" rx="1.5" ry="1.5" fill="#ffffff" stroke="none" ></rect>
  <rect x="11" y="96" width="3" height="3" r="1.5" rx="1.5" ry="1.5" fill="#ffffff" stroke="none" ></rect>
  <rect x="11" y="102" width="3" height="3" r="1.5" rx="1.5" ry="1.5" fill="#ffffff" stroke="none" ></rect>
</svg>